<?xml version="1.0" encoding="UTF-8" standalone="no"?>
<!DOCTYPE svg PUBLIC "-//W3C//DTD SVG 1.1//EN" "http://www.w3.org/Graphics/SVG/1.1/DTD/svg11.dtd">
<svg xmlns="http://www.w3.org/2000/svg" version="1.1" viewBox="0.00 0.00 1024.00 493.00">
<path fill="#c00000" d="
  M 625.69 32.22
  L 647.89 32.40
  A 0.33 0.33 0.0 0 1 648.09 32.99
  L 630.27 46.25
  A 0.33 0.33 0.0 0 0 630.16 46.61
  L 636.85 67.78
  A 0.33 0.33 0.0 0 1 636.34 68.15
  L 618.23 55.31
  A 0.33 0.33 0.0 0 0 617.85 55.31
  L 599.79 68.21
  A 0.33 0.33 0.0 0 1 599.28 67.85
  L 605.90 46.65
  A 0.33 0.33 0.0 0 0 605.78 46.29
  L 587.92 33.10
  A 0.33 0.33 0.0 0 1 588.11 32.50
  L 610.31 32.25
  A 0.33 0.33 0.0 0 0 610.62 32.02
  L 617.65 10.96
  A 0.33 0.33 0.0 0 1 618.28 10.96
  L 625.38 32.00
  A 0.33 0.33 0.0 0 0 625.69 32.22
  Z"
/>
<path fill="#c00000" d="
  M 413.23 32.17
  L 435.32 32.43
  A 0.33 0.33 0.0 0 1 435.51 33.02
  L 417.84 46.27
  A 0.33 0.33 0.0 0 0 417.72 46.63
  L 424.31 67.71
  A 0.33 0.33 0.0 0 1 423.80 68.08
  L 405.74 55.36
  A 0.33 0.33 0.0 0 0 405.36 55.36
  L 387.35 68.14
  A 0.33 0.33 0.0 0 1 386.84 67.77
  L 393.35 46.67
  A 0.33 0.33 0.0 0 0 393.23 46.31
  L 375.52 33.12
  A 0.33 0.33 0.0 0 1 375.71 32.53
  L 397.79 32.20
  A 0.33 0.33 0.0 0 0 398.10 31.98
  L 405.16 11.05
  A 0.33 0.33 0.0 0 1 405.79 11.05
  L 412.93 31.95
  A 0.33 0.33 0.0 0 0 413.23 32.17
  Z"
/>
<path fill="#c00000" d="
  M 484.88 32.19
  L 507.02 32.41
  A 0.32 0.32 0.0 0 1 507.21 32.99
  L 489.48 46.25
  A 0.32 0.32 0.0 0 0 489.36 46.60
  L 495.99 67.73
  A 0.32 0.32 0.0 0 1 495.50 68.09
  L 477.41 55.32
  A 0.32 0.32 0.0 0 0 477.04 55.32
  L 458.99 68.15
  A 0.32 0.32 0.0 0 1 458.50 67.80
  L 465.05 46.65
  A 0.32 0.32 0.0 0 0 464.94 46.29
  L 447.16 33.09
  A 0.32 0.32 0.0 0 1 447.34 32.52
  L 469.48 32.21
  A 0.32 0.32 0.0 0 0 469.78 32.00
  L 476.84 11.01
  A 0.32 0.32 0.0 0 1 477.45 11.01
  L 484.58 31.97
  A 0.32 0.32 0.0 0 0 484.88 32.19
  Z"
/>
<path fill="#c00000" d="
  M 554.01 32.18
  L 576.10 32.42
  A 0.33 0.33 0.0 0 1 576.30 33.01
  L 558.61 46.25
  A 0.33 0.33 0.0 0 0 558.49 46.61
  L 565.10 67.70
  A 0.33 0.33 0.0 0 1 564.59 68.07
  L 546.53 55.33
  A 0.33 0.33 0.0 0 0 546.15 55.34
  L 528.14 68.13
  A 0.33 0.33 0.0 0 1 527.63 67.76
  L 534.16 46.65
  A 0.33 0.33 0.0 0 0 534.04 46.29
  L 516.31 33.11
  A 0.33 0.33 0.0 0 1 516.50 32.52
  L 538.59 32.21
  A 0.33 0.33 0.0 0 0 538.90 31.98
  L 545.95 11.04
  A 0.33 0.33 0.0 0 1 546.58 11.04
  L 553.70 31.96
  A 0.33 0.33 0.0 0 0 554.01 32.18
  Z"
/>
<path fill="#2a2963" d="
  M 1012.00 479.72
  A 0.28 0.28 0.0 0 1 1011.72 480.00
  L 12.48 480.00
  A 0.48 0.48 0.0 0 1 12.00 479.52
  L 12.00 35.49
  A 0.49 0.49 0.0 0 1 12.49 35.00
  L 337.27 35.00
  A 0.21 0.20 -90.0 0 1 337.47 35.21
  L 337.47 42.92
  A 0.22 0.22 0.0 0 1 337.25 43.14
  L 20.55 43.14
  A 0.42 0.41 -90.0 0 0 20.14 43.56
  L 20.14 471.29
  A 0.58 0.58 0.0 0 0 20.72 471.87
  L 1003.45 471.87
  A 0.42 0.41 90.0 0 0 1003.86 471.45
  L 1003.86 43.48
  A 0.34 0.34 0.0 0 0 1003.52 43.14
  L 685.93 43.14
  A 0.22 0.21 -0.0 0 1 685.71 42.93
  L 685.71 35.21
  A 0.21 0.21 0.0 0 1 685.92 35.00
  L 1011.02 35.00
  A 0.98 0.98 0.0 0 1 1012.00 35.98
  L 1012.00 479.72
  Z"
/>
<path fill="#2a2963" d="
  M 394.62 108.97
  Q 422.90 108.85 436.24 109.05
  Q 440.70 109.12 447.02 111.01
  C 454.68 113.30 461.19 119.30 462.02 127.51
  Q 463.37 140.94 452.27 147.73
  A 0.30 0.30 0.0 0 0 452.32 148.26
  Q 468.30 154.50 465.88 172.24
  C 463.88 186.85 447.95 190.26 435.87 190.41
  Q 432.78 190.45 394.59 190.41
  A 0.64 0.64 0.0 0 1 393.95 189.77
  L 393.95 109.64
  A 0.67 0.67 0.0 0 1 394.62 108.97
  Z
  M 409.00 121.37
  L 409.00 142.83
  A 0.32 0.32 0.0 0 0 409.32 143.15
  L 433.68 143.15
  A 13.16 10.14 0.0 0 0 446.84 133.01
  L 446.84 131.19
  A 13.16 10.14 -0.0 0 0 433.68 121.05
  L 409.32 121.05
  A 0.32 0.32 0.0 0 0 409.00 121.37
  Z
  M 409.00 155.30
  L 409.00 178.36
  A 0.25 0.25 0.0 0 0 409.25 178.61
  L 436.28 178.61
  A 14.68 10.36 0.0 0 0 450.96 168.25
  L 450.96 165.41
  A 14.68 10.36 -0.0 0 0 436.28 155.05
  L 409.25 155.05
  A 0.25 0.25 0.0 0 0 409.00 155.30
  Z"
/>
<path fill="#2a2963" d="
  M 517.54 178.25
  C 533.38 178.26 538.20 167.94 538.21 153.92
  Q 538.22 141.21 538.24 109.57
  A 0.62 0.62 0.0 0 1 538.86 108.95
  L 552.54 108.95
  A 0.67 0.66 90.0 0 1 553.20 109.62
  Q 553.12 137.51 553.18 153.25
  Q 553.20 160.86 552.32 165.32
  C 548.80 183.03 535.34 191.62 517.53 191.60
  C 499.72 191.59 486.27 182.99 482.77 165.27
  Q 481.90 160.81 481.93 153.20
  Q 482.01 137.46 481.97 109.57
  A 0.67 0.66 -89.9 0 1 482.63 108.90
  L 496.31 108.92
  A 0.62 0.62 0.0 0 1 496.93 109.54
  Q 496.91 141.18 496.90 153.89
  C 496.89 167.91 501.70 178.24 517.54 178.25
  Z"
/>
<path fill="#2a2963" d="
  M 608.88 162.08
  L 608.88 190.12
  A 0.30 0.30 0.0 0 1 608.58 190.42
  L 593.96 190.42
  A 0.30 0.30 0.0 0 1 593.66 190.12
  L 593.66 161.55
  A 0.30 0.30 0.0 0 0 593.62 161.40
  L 561.74 109.40
  A 0.30 0.30 0.0 0 1 562.00 108.94
  L 577.44 108.94
  A 0.30 0.30 0.0 0 1 577.70 109.08
  L 601.70 148.24
  A 0.30 0.30 0.0 0 0 602.21 148.23
  L 625.51 109.08
  A 0.30 0.30 0.0 0 1 625.77 108.93
  L 639.95 108.93
  A 0.30 0.30 0.0 0 1 640.21 109.38
  L 608.92 161.93
  A 0.30 0.30 0.0 0 0 608.88 162.08
  Z"
/>
<path fill="#c00000" d="
  M 647.94 267.90
  Q 647.94 271.75 648.93 275.74
  C 651.73 287.05 660.16 293.65 671.80 293.96
  C 681.60 294.22 688.46 289.38 694.86 282.19
  A 0.60 0.59 41.2 0 1 695.70 282.14
  L 717.01 301.16
  A 0.58 0.57 -49.9 0 1 717.07 301.95
  C 708.98 312.13 697.70 318.62 684.80 321.05
  C 648.75 327.84 612.57 307.93 612.57 267.90
  C 612.56 227.86 648.74 207.95 684.80 214.74
  C 697.69 217.17 708.97 223.65 717.07 233.83
  A 0.58 0.57 49.9 0 1 717.01 234.62
  L 695.70 253.65
  A 0.60 0.59 -41.2 0 1 694.86 253.60
  C 688.46 246.41 681.60 241.57 671.80 241.83
  C 660.16 242.14 651.73 248.74 648.93 260.05
  Q 647.94 264.04 647.94 267.90
  Z"
/>
<path fill="#c00000" d="
  M 96.20 215.81
  L 130.29 215.81
  A 0.37 0.37 0.0 0 1 130.63 216.03
  L 175.88 319.48
  A 0.37 0.37 0.0 0 1 175.54 320.00
  L 139.98 320.00
  A 0.37 0.37 0.0 0 1 139.64 319.76
  L 132.82 302.04
  A 0.37 0.37 0.0 0 0 132.48 301.80
  L 93.40 301.80
  A 0.37 0.37 0.0 0 0 93.06 302.04
  L 86.24 319.76
  A 0.37 0.37 0.0 0 1 85.90 320.00
  L 50.95 320.00
  A 0.37 0.37 0.0 0 1 50.61 319.48
  L 95.86 216.03
  A 0.37 0.37 0.0 0 1 96.20 215.81
  Z
  M 112.94 276.45
  Q 119.27 276.46 122.57 276.43
  A 0.28 0.27 -11.1 0 0 122.83 276.06
  Q 118.13 263.83 113.50 251.75
  Q 113.22 251.02 112.93 251.02
  Q 112.68 251.02 112.40 251.75
  Q 107.76 263.83 103.05 276.05
  A 0.28 0.27 11.2 0 0 103.31 276.43
  Q 106.61 276.45 112.94 276.45
  Z"
/>
<path fill="#c00000" d="
  M 257.53 310.74
  L 242.45 310.74
  A 0.32 0.32 0.0 0 1 242.18 310.59
  L 220.41 275.08
  A 0.32 0.32 0.0 0 0 219.82 275.24
  L 219.82 319.68
  A 0.32 0.32 0.0 0 1 219.50 320.00
  L 188.00 320.00
  A 0.32 0.32 0.0 0 1 187.68 319.68
  L 187.68 216.13
  A 0.32 0.32 0.0 0 1 188.00 215.81
  L 216.41 215.81
  A 0.32 0.32 0.0 0 1 216.68 215.96
  L 250.27 270.76
  A 0.32 0.32 0.0 0 0 250.82 270.75
  L 283.43 215.97
  A 0.32 0.32 0.0 0 1 283.70 215.81
  L 312.29 215.81
  A 0.32 0.32 0.0 0 1 312.61 216.13
  L 312.61 319.68
  A 0.32 0.32 0.0 0 1 312.29 320.00
  L 280.96 320.00
  A 0.32 0.32 0.0 0 1 280.64 319.68
  L 280.64 273.39
  A 0.32 0.32 0.0 0 0 280.05 273.23
  L 257.80 310.58
  A 0.32 0.32 0.0 0 1 257.53 310.74
  Z"
/>
<path fill="#c00000" d="
  M 370.07 242.64
  L 370.07 254.06
  A 0.38 0.38 0.0 0 0 370.45 254.44
  L 413.74 254.44
  A 0.38 0.38 0.0 0 1 414.12 254.82
  L 414.12 279.43
  A 0.38 0.38 0.0 0 1 413.74 279.81
  L 370.44 279.81
  A 0.38 0.38 0.0 0 0 370.06 280.19
  L 370.06 293.01
  A 0.38 0.38 0.0 0 0 370.44 293.39
  L 421.86 293.39
  A 0.38 0.38 0.0 0 1 422.24 293.77
  L 422.24 319.62
  A 0.38 0.38 0.0 0 1 421.86 320.00
  L 336.04 320.00
  A 0.38 0.38 0.0 0 1 335.66 319.62
  L 335.66 216.19
  A 0.38 0.38 0.0 0 1 336.04 215.81
  L 419.88 215.81
  A 0.38 0.38 0.0 0 1 420.26 216.19
  L 420.26 241.88
  A 0.38 0.38 0.0 0 1 419.88 242.26
  L 370.45 242.26
  A 0.38 0.38 0.0 0 0 370.07 242.64
  Z"
/>
<path fill="#c00000" d="
  M 541.28 319.56
  A 0.30 0.29 72.8 0 1 541.04 320.02
  L 504.56 320.02
  A 0.84 0.82 72.2 0 1 503.88 319.66
  L 486.62 294.38
  A 1.12 1.11 -17.0 0 0 485.70 293.90
  L 477.51 293.90
  A 0.63 0.63 0.0 0 0 476.88 294.53
  L 476.88 319.43
  A 0.57 0.57 0.0 0 1 476.31 320.00
  L 442.23 320.00
  A 0.59 0.58 90.0 0 1 441.65 319.41
  L 441.65 216.05
  A 0.22 0.22 0.0 0 1 441.87 215.83
  Q 474.76 215.78 493.25 215.85
  C 517.78 215.93 539.80 228.72 539.25 256.02
  Q 538.82 277.50 520.21 287.69
  A 0.53 0.52 -31.7 0 0 520.03 288.44
  L 541.28 319.56
  Z
  M 476.85 243.39
  L 476.89 266.69
  A 0.43 0.43 0.0 0 0 477.32 267.12
  L 492.05 267.10
  A 11.96 11.75 -0.1 0 0 503.99 255.33
  L 503.99 254.67
  A 11.96 11.75 -0.1 0 0 492.01 242.94
  L 477.28 242.96
  A 0.43 0.43 0.0 0 0 476.85 243.39
  Z"
/>
<rect fill="#c00000" x="558.86" y="215.81" width="35.24" height="104.22" rx="0.33"/>
<path fill="#c00000" d="
  M 721.02 320.05
  A 0.31 0.30 -77.8 0 1 720.75 319.61
  L 765.90 216.41
  A 1.00 0.99 -78.2 0 1 766.81 215.81
  L 800.22 215.81
  A 0.80 0.80 0.0 0 1 800.95 216.29
  L 846.11 319.52
  A 0.37 0.37 0.0 0 1 845.77 320.04
  L 810.47 320.04
  A 0.77 0.77 0.0 0 1 809.75 319.55
  L 803.15 302.37
  A 0.84 0.82 79.0 0 0 802.38 301.84
  L 763.68 301.84
  A 0.49 0.48 -79.3 0 0 763.23 302.15
  L 756.45 319.77
  A 0.43 0.41 9.7 0 1 756.05 320.04
  L 721.02 320.05
  Z
  M 783.16 276.45
  Q 789.49 276.45 792.79 276.42
  A 0.28 0.27 -11.2 0 0 793.04 276.05
  Q 788.34 263.83 783.70 251.77
  Q 783.41 251.03 783.17 251.04
  Q 782.88 251.04 782.60 251.77
  Q 777.97 263.84 773.28 276.06
  A 0.28 0.27 11.1 0 0 773.53 276.43
  Q 776.83 276.46 783.16 276.45
  Z"
/>
<path fill="#c00000" d="
  M 922.03 257.97
  Q 924.07 260.41 925.97 262.59
  A 0.21 0.21 0.0 0 0 926.33 262.45
  L 926.33 216.42
  A 0.62 0.61 -90.0 0 1 926.94 215.80
  L 960.01 215.80
  A 0.65 0.64 90.0 0 1 960.65 216.45
  L 960.66 319.40
  A 0.64 0.63 0.0 0 1 960.02 320.03
  L 932.40 320.03
  A 1.29 1.29 0.0 0 1 931.45 319.61
  Q 929.66 317.63 896.49 277.86
  Q 894.45 275.42 892.55 273.25
  A 0.21 0.21 0.0 0 0 892.19 273.39
  L 892.19 319.42
  A 0.62 0.61 -90.0 0 1 891.58 320.04
  L 858.51 320.04
  A 0.65 0.64 90.0 0 1 857.87 319.39
  L 857.86 216.44
  A 0.64 0.63 0.0 0 1 858.50 215.81
  L 886.12 215.81
  A 1.29 1.29 0.0 0 1 887.07 216.23
  Q 888.86 218.20 922.03 257.97
  Z"
/>
<path fill="#2a2963" d="
  M 759.24 380.51
  Q 766.51 389.70 774.46 399.10
  A 0.21 0.21 0.0 0 0 774.83 398.97
  L 774.83 344.93
  A 0.44 0.44 0.0 0 1 775.27 344.49
  L 789.58 344.49
  A 0.30 0.29 90.0 0 1 789.87 344.79
  L 789.87 425.40
  A 0.63 0.63 0.0 0 1 789.24 426.03
  L 778.17 426.03
  A 1.41 1.39 -19.3 0 1 777.08 425.52
  Q 753.09 396.21 748.15 389.97
  Q 740.87 380.78 732.92 371.38
  A 0.21 0.21 0.0 0 0 732.55 371.51
  L 732.55 425.55
  A 0.44 0.44 0.0 0 1 732.11 425.99
  L 717.80 425.99
  A 0.30 0.29 90.0 0 1 717.51 425.69
  L 717.51 345.08
  A 0.63 0.63 0.0 0 1 718.14 344.45
  L 729.21 344.45
  A 1.41 1.39 -19.3 0 1 730.30 344.96
  Q 754.30 374.27 759.24 380.51
  Z"
/>
<path fill="#2a2963" d="
  M 240.52 344.67
  L 267.51 406.36
  A 0.30 0.30 0.0 0 0 268.05 406.36
  L 295.04 344.68
  A 0.30 0.30 0.0 0 1 295.32 344.50
  L 309.85 344.50
  A 0.30 0.30 0.0 0 1 310.13 344.92
  L 274.73 425.82
  A 0.30 0.30 0.0 0 1 274.45 426.00
  L 260.02 426.00
  A 0.30 0.30 0.0 0 1 259.74 425.82
  L 224.35 344.91
  A 0.30 0.30 0.0 0 1 224.63 344.49
  L 240.24 344.49
  A 0.30 0.30 0.0 0 1 240.52 344.67
  Z"
/>
<path fill="#2a2963" d="
  M 379.88 426.00
  L 319.56 426.00
  A 0.39 0.39 0.0 0 1 319.17 425.61
  L 319.17 344.90
  A 0.39 0.39 0.0 0 1 319.56 344.51
  L 378.32 344.51
  A 0.39 0.39 0.0 0 1 378.71 344.90
  L 378.71 356.77
  A 0.39 0.39 0.0 0 1 378.32 357.16
  L 334.55 357.16
  A 0.39 0.39 0.0 0 0 334.16 357.55
  L 334.16 377.76
  A 0.39 0.39 0.0 0 0 334.55 378.15
  L 373.48 378.15
  A 0.39 0.39 0.0 0 1 373.87 378.54
  L 373.87 390.44
  A 0.39 0.39 0.0 0 1 373.48 390.83
  L 334.55 390.83
  A 0.39 0.39 0.0 0 0 334.16 391.22
  L 334.16 412.61
  A 0.39 0.39 0.0 0 0 334.55 413.00
  L 379.88 413.00
  A 0.39 0.39 0.0 0 1 380.27 413.39
  L 380.27 425.61
  A 0.39 0.39 0.0 0 1 379.88 426.00
  Z"
/>
<path fill="#2a2963" d="
  M 421.16 344.51
  Q 454.24 344.53 455.22 344.53
  A 0.63 0.62 -89.7 0 1 455.84 345.16
  L 455.84 356.55
  A 0.63 0.62 90.0 0 1 455.22 357.18
  L 429.32 357.18
  A 0.61 0.61 0.0 0 0 428.71 357.79
  L 428.67 425.65
  A 0.28 0.28 0.0 0 1 428.42 425.93
  Q 427.84 426.00 421.11 426.00
  Q 414.39 426.00 413.80 425.92
  A 0.28 0.28 0.0 0 1 413.56 425.64
  L 413.59 357.78
  A 0.61 0.61 0.0 0 0 412.98 357.17
  L 387.08 357.14
  A 0.63 0.62 -89.9 0 1 386.46 356.51
  L 386.47 345.12
  A 0.63 0.62 89.7 0 1 387.09 344.50
  Q 388.07 344.49 421.16 344.51
  Z"
/>
<path fill="#2a2963" d="
  M 527.61 413.00
  A 0.64 0.63 0.0 0 1 528.25 413.63
  L 528.22 425.67
  A 0.33 0.33 0.0 0 1 527.89 426.00
  L 467.55 425.99
  A 0.41 0.40 0.0 0 1 467.14 425.59
  L 467.15 344.86
  A 0.38 0.37 0.0 0 1 467.53 344.49
  L 526.30 344.55
  A 0.38 0.38 0.0 0 1 526.68 344.93
  L 526.70 356.58
  A 0.59 0.59 0.0 0 1 526.11 357.17
  L 482.60 357.17
  A 0.46 0.45 0.0 0 0 482.14 357.62
  L 482.12 377.55
  A 0.61 0.61 0.0 0 0 482.73 378.16
  L 521.40 378.16
  A 0.44 0.43 0.0 0 1 521.84 378.59
  L 521.85 390.21
  A 0.62 0.62 0.0 0 1 521.23 390.83
  L 482.47 390.83
  A 0.33 0.33 0.0 0 0 482.14 391.16
  L 482.12 412.40
  A 0.60 0.60 0.0 0 0 482.72 413.00
  L 527.61 413.00
  Z"
/>
<path fill="#2a2963" d="
  M 545.04 425.32
  L 545.04 344.81
  A 0.30 0.30 0.0 0 1 545.34 344.51
  Q 569.04 344.49 579.49 344.52
  C 596.14 344.56 611.64 352.22 613.10 370.60
  Q 614.29 385.56 604.02 394.39
  C 601.61 396.47 598.77 397.73 596.61 399.05
  A 0.47 0.46 -32.9 0 0 596.46 399.71
  L 614.22 425.72
  A 0.18 0.18 0.0 0 1 614.07 426.00
  L 598.66 426.00
  A 0.98 0.98 0.0 0 1 597.84 425.56
  L 582.19 402.65
  A 1.08 1.07 -17.1 0 0 581.30 402.18
  L 560.63 402.18
  A 0.64 0.64 0.0 0 0 559.99 402.82
  L 559.99 425.35
  A 0.65 0.64 -90.0 0 1 559.35 426.00
  L 545.72 426.00
  A 0.68 0.68 0.0 0 1 545.04 425.32
  Z
  M 560.00 357.63
  L 560.00 389.31
  A 0.38 0.38 0.0 0 0 560.38 389.69
  L 580.64 389.69
  A 17.22 14.88 -0.0 0 0 597.86 374.81
  L 597.86 372.13
  A 17.22 14.88 0.0 0 0 580.64 357.25
  L 560.38 357.25
  A 0.38 0.38 0.0 0 0 560.00 357.63
  Z"
/>
<path fill="#2a2963" d="
  M 662.57 344.50
  Q 666.03 344.50 669.22 344.47
  A 1.26 1.26 0.0 0 1 670.38 345.21
  L 706.61 425.62
  A 0.28 0.27 -12.4 0 1 706.36 426.01
  L 691.65 426.01
  A 0.84 0.84 0.0 0 1 690.88 425.51
  L 682.98 407.44
  A 0.54 0.53 78.2 0 0 682.49 407.11
  Q 681.32 407.11 662.55 407.10
  Q 643.78 407.09 642.62 407.10
  A 0.54 0.53 -78.2 0 0 642.12 407.43
  L 634.21 425.49
  A 0.84 0.84 0.0 0 1 633.44 425.99
  L 618.73 425.98
  A 0.28 0.27 12.4 0 1 618.48 425.59
  L 654.77 345.20
  A 1.26 1.26 0.0 0 1 655.93 344.46
  Q 659.11 344.49 662.57 344.50
  Z
  M 647.43 394.54
  A 0.33 0.33 0.0 0 0 647.73 395.00
  L 677.09 395.00
  A 0.33 0.33 0.0 0 0 677.39 394.54
  L 662.71 360.34
  A 0.33 0.33 0.0 0 0 662.11 360.34
  L 647.43 394.54
  Z"
/>
<path fill="#2a2963" d="
  M 860.96 410.42
  A 15.19 15.19 0.0 0 1 845.77 425.61
  A 15.19 15.19 0.0 0 1 830.58 410.42
  A 15.19 15.19 0.0 0 1 845.77 395.23
  A 15.19 15.19 0.0 0 1 860.96 410.42
  Z
  M 859.31 410.42
  A 13.56 13.56 0.0 0 0 845.75 396.86
  A 13.56 13.56 0.0 0 0 832.19 410.42
  A 13.56 13.56 0.0 0 0 845.75 423.98
  A 13.56 13.56 0.0 0 0 859.31 410.42
  Z"
/>
<path fill="#2a2963" d="
  M 849.97 413.64
  L 853.25 418.45
  A 0.42 0.42 0.0 0 1 852.90 419.10
  L 852.20 419.10
  A 1.58 1.57 72.8 0 1 850.90 418.41
  L 847.63 413.62
  A 0.51 0.50 -17.6 0 0 847.22 413.41
  L 842.50 413.41
  A 0.52 0.51 0.0 0 0 841.98 413.92
  L 841.98 418.57
  A 0.49 0.49 0.0 0 1 841.49 419.06
  L 840.40 419.06
  A 0.52 0.52 0.0 0 1 839.88 418.54
  L 839.88 402.40
  A 0.63 0.62 89.1 0 1 840.48 401.77
  C 845.54 401.60 852.49 401.02 853.29 406.38
  Q 853.95 410.85 850.23 412.65
  A 0.68 0.67 60.0 0 0 849.97 413.64
  Z
  M 841.95 404.04
  L 841.95 411.10
  A 0.35 0.35 0.0 0 0 842.30 411.45
  L 846.86 411.45
  A 4.35 3.63 -0.0 0 0 851.21 407.82
  L 851.21 407.32
  A 4.35 3.63 0.0 0 0 846.86 403.69
  L 842.30 403.69
  A 0.35 0.35 0.0 0 0 841.95 404.04
  Z"
/>
</svg>
